<svg xmlns="http://www.w3.org/2000/svg" viewBox="0 0 64 64" role="img" aria-label="오늘의 기록">
  <defs>
    <linearGradient id="bg" x1="12" y1="8" x2="52" y2="58" gradientUnits="userSpaceOnUse">
      <stop offset="0" stop-color="#f7ede3"/>
      <stop offset="1" stop-color="#d7e5d3"/>
    </linearGradient>
    <linearGradient id="leaf" x1="25" y1="22" x2="45" y2="44" gradientUnits="userSpaceOnUse">
      <stop offset="0" stop-color="#789d72"/>
      <stop offset="1" stop-color="#456b50"/>
    </linearGradient>
  </defs>
  <rect width="64" height="64" rx="19" fill="#fffaf6"/>
  <rect x="5" y="5" width="54" height="54" rx="17" fill="url(#bg)"/>
  <path d="M18 39c7-12 22-14 30-5-5 12-20 17-30 5Z" fill="#fffaf6" opacity=".92"/>
  <path d="M26 37c4-12 13-16 23-16 0 12-8 21-20 22-2-1-3-3-3-6Z" fill="url(#leaf)"/>
  <path d="M29 40c5-6 11-10 18-14" fill="none" stroke="#f7ede3" stroke-width="2.5" stroke-linecap="round"/>
  <circle cx="21" cy="22" r="5" fill="#b07a55"/>
  <circle cx="23" cy="20" r="5" fill="#f7ede3"/>
</svg>
